# xmcd
# 
# Track frame offsets:
#     150
#     12405
#     25132
#     39285
#     50222
#     65995
#     75412
#     88130
#     101690
#     114786
#     137032
# 
# Disc length: 1977
# 
# Revision: 1
# Processed by: cddbd v1.5.2PL0 Copyright (c) Steve Scherf et al.
# Submitted via: fre:ac v1.0.27
# 
DISCID=8d07b70b
DTITLE=Michel Polnareff - Le bal des laze
DYEAR=1968
DGENRE=Pop
TTITLE0=Jour après jour
TTITLE1=Le roi des fourmis
TTITLE2=Rosée d'amour n'a pas vu le jour
TTITLE3=Ta Ta Ta Ta
TTITLE4=Mes regrets
TTITLE5=Les grands sentiments humains
TTITLE6=Pipelette
TTITLE7=Ame Caline
TTITLE8=Y'a qu'un ch'veu
TTITLE9=Le bal des Laze
TTITLE10=Oh! Louis
EXTD=YEAR: 1968
EXTT0=
EXTT1=
EXTT2=
EXTT3=
EXTT4=
EXTT5=
EXTT6=
EXTT7=
EXTT8=
EXTT9=
EXTT10=
PLAYORDER=
